# xmcd CD database file
#
# Track frame offsets:
#	150
#	15342
#	32490
#	48652
#	69042
#	83365
#	96172
#	111567
#	133470
#	147087
#	162600
#
# Disc length: 2379 seconds
#
# Revision: 0
# Processed by: cddbd v1.4PL0 Copyright (c) Steve Scherf et al.
# Submitted via: CDex 1.40Beta9
#
DISCID=8e09490b
DTITLE=Paula McCulla - No Stone Unturned
DYEAR=1996
DGENRE=Country
TTITLE0=Let Your Yes Be Yes
TTITLE1=To Love and Be Loved
TTITLE2=Throw the Stone
TTITLE3=Blush
TTITLE4=A Place To Turn Around
TTITLE5=Inquiring Minds
TTITLE6=The Verdict
TTITLE7=Going For The Gold
TTITLE8=Rockin' Holy Roller
TTITLE9=That's What I Call Faith
TTITLE10=Our Refrigerator Door
EXTD=YEAR: 1996 ID3G: 2
EXTT0=
EXTT1=
EXTT2=
EXTT3=
EXTT4=
EXTT5=
EXTT6=
EXTT7=
EXTT8=
EXTT9=
EXTT10=
PLAYORDER=
